<svg width="562" height="138" viewBox="0 0 562 138" fill="none" xmlns="http://www.w3.org/2000/svg">
<path d="M541.138 92.9238C541.138 87.7526 545.33 83.5605 550.501 83.5605H551.74C556.911 83.5605 561.104 87.7526 561.104 92.9238C561.104 98.095 556.911 102.287 551.74 102.287H550.501C545.33 102.287 541.138 98.095 541.138 92.9238Z" fill="black"/>
<path d="M532.509 82.5508H495.056C495.392 85.5495 496.203 87.7832 497.488 89.252C499.294 91.3633 501.65 92.4189 504.557 92.4189C506.393 92.4189 508.137 91.96 509.789 91.042C510.799 90.4606 511.885 89.4355 513.048 87.9668L531.453 89.665C528.638 94.5609 525.242 98.0798 521.264 100.222C517.286 102.333 511.579 103.389 504.144 103.389C497.687 103.389 492.608 102.486 488.905 100.681C485.203 98.8447 482.128 95.9531 479.68 92.0059C477.262 88.028 476.054 83.3617 476.054 78.0068C476.054 70.3877 478.486 64.222 483.352 59.5098C488.247 54.7975 494.994 52.4414 503.593 52.4414C510.569 52.4414 516.077 53.4971 520.116 55.6084C524.155 57.7197 527.23 60.7796 529.342 64.7881C531.453 68.7965 532.509 74.0137 532.509 80.4395V82.5508ZM513.507 73.6006C513.14 69.9899 512.16 67.4043 510.569 65.8438C509.009 64.2832 506.943 63.5029 504.373 63.5029C501.405 63.5029 499.034 64.681 497.259 67.0371C496.127 68.5059 495.408 70.6937 495.102 73.6006H513.507Z" fill="black"/>
<path d="M452.049 83.2393L469.812 85.2588C468.832 88.9613 467.226 92.1742 464.992 94.8975C462.758 97.5902 459.897 99.6862 456.409 101.186C452.951 102.685 448.545 103.435 443.19 103.435C438.019 103.435 433.705 102.96 430.247 102.012C426.82 101.033 423.867 99.472 421.389 97.3301C418.91 95.1576 416.967 92.6178 415.56 89.7109C414.152 86.804 413.448 82.9486 413.448 78.1445C413.448 73.1263 414.305 68.9495 416.019 65.6143C417.273 63.1663 418.987 60.9785 421.159 59.0508C423.332 57.0924 425.565 55.639 427.86 54.6904C431.502 53.1911 436.168 52.4414 441.859 52.4414C449.815 52.4414 455.874 53.8643 460.035 56.71C464.227 59.5557 467.165 63.7171 468.848 69.1943L451.269 71.5352C450.718 69.4544 449.708 67.8939 448.239 66.8535C446.801 65.7826 444.858 65.2471 442.41 65.2471C439.32 65.2471 436.811 66.3639 434.883 68.5977C432.986 70.8008 432.037 74.1514 432.037 78.6494C432.037 82.6579 432.986 85.7025 434.883 87.7832C436.78 89.8639 439.197 90.9043 442.135 90.9043C444.583 90.9043 446.633 90.277 448.285 89.0225C449.968 87.7679 451.223 85.8402 452.049 83.2393Z" fill="black"/>
<path d="M353 53.543H370.396V61.4834C372.996 58.2399 375.628 55.9297 378.29 54.5527C380.952 53.1452 384.196 52.4414 388.021 52.4414C393.192 52.4414 397.231 53.9867 400.138 57.0771C403.075 60.137 404.544 64.8799 404.544 71.3057V102.287H385.771V75.4824C385.771 72.4225 385.205 70.2653 384.073 69.0107C382.941 67.7256 381.35 67.083 379.3 67.083C377.035 67.083 375.2 67.9398 373.792 69.6533C372.384 71.3669 371.681 74.4421 371.681 78.8789V102.287H353V53.543Z" fill="black"/>
<path d="M341.663 102.287H324.222V94.3926C321.621 97.6361 318.989 99.9463 316.327 101.323C313.696 102.7 310.452 103.389 306.597 103.389C301.456 103.389 297.417 101.859 294.479 98.7988C291.573 95.7083 290.119 90.9655 290.119 84.5703V53.543H308.892V80.3477C308.892 83.4076 309.458 85.5801 310.59 86.8652C311.722 88.1504 313.313 88.793 315.363 88.793C317.597 88.793 319.418 87.9362 320.825 86.2227C322.263 84.5091 322.982 81.4339 322.982 76.9971V53.543H341.663V102.287Z" fill="black"/>
<path d="M225.311 78.0527C225.311 70.6172 227.82 64.4974 232.838 59.6934C237.856 54.8587 244.634 52.4414 253.171 52.4414C262.932 52.4414 270.306 55.2718 275.294 60.9326C279.302 65.4919 281.307 71.1068 281.307 77.7773C281.307 85.2741 278.813 91.4245 273.825 96.2285C268.868 101.002 261.999 103.389 253.217 103.389C245.383 103.389 239.049 101.4 234.215 97.4219C228.279 92.4954 225.311 86.0391 225.311 78.0527ZM244.037 78.0068C244.037 82.3519 244.909 85.5648 246.653 87.6455C248.428 89.7262 250.646 90.7666 253.309 90.7666C256.001 90.7666 258.204 89.7415 259.918 87.6914C261.662 85.6413 262.534 82.3519 262.534 77.8232C262.534 73.6006 261.662 70.4642 259.918 68.4141C258.174 66.3333 256.017 65.293 253.446 65.293C250.723 65.293 248.474 66.3486 246.699 68.46C244.924 70.5407 244.037 73.723 244.037 78.0068Z" fill="black"/>
<path d="M165 35H183.864V58.3164C185.731 56.3581 187.842 54.8893 190.198 53.9102C192.585 52.931 195.216 52.4414 198.093 52.4414C204.029 52.4414 208.94 54.5833 212.826 58.8672C216.712 63.1204 218.655 69.2402 218.655 77.2266C218.655 82.5508 217.768 87.2477 215.993 91.3174C214.218 95.3564 211.755 98.3857 208.604 100.405C205.482 102.394 202.009 103.389 198.185 103.389C194.91 103.389 191.912 102.685 189.188 101.277C187.138 100.176 184.905 98.1104 182.487 95.0811V102.287H165V35ZM183.727 77.7773C183.727 81.9694 184.507 85.014 186.067 86.9111C187.659 88.7777 189.663 89.7109 192.08 89.7109C194.314 89.7109 196.18 88.793 197.68 86.957C199.21 85.0905 199.975 81.9694 199.975 77.5938C199.975 73.7383 199.225 70.9079 197.726 69.1025C196.257 67.2972 194.467 66.3945 192.355 66.3945C189.816 66.3945 187.735 67.3431 186.113 69.2402C184.522 71.1068 183.727 73.9525 183.727 77.7773Z" fill="black"/>
<g clip-path="url(#clip0_61_88)">
<path d="M108 0C124.569 5.79834e-07 138 13.4315 138 30V108C138 124.569 124.569 138 108 138H30C13.4315 138 5.7987e-07 124.569 0 108V30C5.7987e-07 13.4315 13.4315 5.79834e-07 30 0H108ZM104.772 101.398C103.542 96.648 98.6947 93.7945 93.9443 95.0244C89.194 96.2545 86.3396 101.102 87.5693 105.853C88.7994 110.603 93.648 113.457 98.3984 112.228C103.149 110.997 106.003 106.149 104.772 101.398ZM69.7227 20.501C59.22 35.1027 48.7165 49.7049 38.2139 64.3066C36.72 66.384 37.6224 69.1676 39.5801 70.8154C49.3844 79.0674 59.1889 87.3203 68.9932 95.5723C70.3022 96.6741 71.6118 97.7761 72.9209 98.8779C74.65 100.336 76.8356 100.992 79.0596 100.611C81.2799 100.235 83.3569 98.8531 84.7705 96.8594C86.184 94.8656 86.8001 92.4481 86.4199 90.2285C86.0433 88.0039 84.7014 86.1587 82.7529 85.0098C81.2801 84.1392 79.8068 83.2681 78.334 82.3975C68.4831 76.5743 58.6312 70.7509 48.7803 64.9277C56.0044 50.265 63.227 35.6012 70.4512 20.9385C71.2073 19.4037 71.9636 17.8687 72.7197 16.334C71.7207 17.7229 70.7217 19.1121 69.7227 20.501Z" fill="#C6F564"/>
</g>
<defs>
<clipPath id="clip0_61_88">
<rect width="138" height="138" fill="white"/>
</clipPath>
</defs>
</svg>
